<?xml version="1.0" encoding="utf-8"?>
<!-- Generator: Adobe Illustrator 15.1.0, SVG Export Plug-In  -->
<!DOCTYPE svg PUBLIC "-//W3C//DTD SVG 1.1//EN" "http://www.w3.org/Graphics/SVG/1.1/DTD/svg11.dtd" [
	<!ENTITY ns_flows "http://ns.adobe.com/Flows/1.0/">
]>
<svg version="1.1"
	 xmlns="http://www.w3.org/2000/svg" xmlns:xlink="http://www.w3.org/1999/xlink" xmlns:a="http://ns.adobe.com/AdobeSVGViewerExtensions/3.0/"
	 x="0px" y="0px" width="1000px" height="1000px" viewBox="0 -75.049 1000 1000"
	 overflow="visible" enable-background="new 0 -75.049 1000 1000" xml:space="preserve">
<defs>
</defs>
<path fill="#00539B" d="M283.256,354.146c0,0,36.707,15.404,57.027,29.021c-1.236,5.6-44.213,88.949-38.231,174.494
	C294.921,549.511,250.158,474.648,283.256,354.146z"/>
<path fill="#00539B" d="M860.699,103.597c0,0-44.513-49.742-136.911-58.976C616.919,34.055,449.879,75.1,336.62,230.091
	c6.586,3.93,42.19,23.622,62.552,43.014C422.015,236.236,591.632,57.227,860.699,103.597z"/>
<path fill="#EE3124" d="M735.062,540.31c207.693-184.194,137.977-370.526,137.977-370.526
	c-51.457,175.038-114.854,245.104-187.156,309.978C611.157,541.75,476.228,609.478,299.018,581.45c0,0,45.225,49.159,137.752,57.078
	C518.709,645.522,634.938,622.217,735.062,540.31z"/>
<path fill="#EE3124" d="M0,411.082c16.89-68.118,139.213-117.952,258.676-67.685C161.007,340.591,63.251,370.691,0,411.082z"/>
<path fill="#00539B" d="M448.98,318.172c43.135,49.238,83.859,115.227,114.326,208.674C595.82,342.198,776.761,127.127,1000,134.226
	C817.148,76.128,574.43,158.505,448.98,318.172z"/>
<path fill="#EE3124" d="M873.431,0c-35.325,45.312,23.102,143.655,117.21,96.195C951.024,84.596,897.456,54.229,873.431,0z"/>
<path fill="#00539B" d="M47.452,274.562c87.002-68.172,188.168-61.353,274.284-16.819
	c113.518,58.743,196.211,173.891,229.933,274.349C437.952,395.961,244.896,284.529,47.452,274.562z"/>
<path fill="#00539B" d="M508.893,732.866c65.37-12.348,79.421-46.444,79.421-46.444l-110.845-0.017h-25.604h-9.026l7.002,6.652
	L402.04,848.604h70.982l17.448-56.653c51.928-12.465,71.145-42.223,71.145-42.223h-57.956h-0.42l0.3-0.375l4.979-16.128v-0.283
	L508.893,732.866z"/>
<path fill="#00539B" d="M353.813,732.85c65.341-12.373,79.317-46.444,79.317-46.444H322.298h-25.604h-9.055l7.031,6.577
	l-47.827,155.621h70.97l17.46-56.653c51.932-12.465,71.187-42.223,71.187-42.223h-57.81l-0.533-0.042l0.258-0.383l4.933-16.078
	l0.038-0.342L353.813,732.85z"/>
<path fill="#00539B" d="M750.204,742.892c9.529-27.577-7.581-56.47-61.149-56.47h-91.636l6.994,6.636l-47.598,155.546h66.932
	l15.937-51.907l0.312-1.599l0.449,0.059l0.612,1.873c0,0,8.126,23.348,27.877,36.853c19.783,13.547,36.844,16.021,65.229,16.021
	l-34.792-67.936C729.384,774.698,744.309,759.977,750.204,742.892z M684.534,740.193c-3.685,12.082-15.342,13.539-26.616,13.539
	h-4.521h-0.338l0.2-0.384l8.256-26.853l-0.163-0.241l0.562-0.05h4.912C678.602,726.205,688.381,727.679,684.534,740.193z"/>
<path fill="#EE3124" d="M921.99,199.458c-23.381-27.219,9.362-68.456,54.938-52.248C937.277,158.676,925.732,190.524,921.99,199.458
	z"/>
</svg>
